<svg xmlns="http://www.w3.org/2000/svg" xmlns:xlink="http://www.w3.org/1999/xlink" width="46" zoomAndPan="magnify" viewBox="0 0 34.5 30.000001" height="40" preserveAspectRatio="xMidYMid meet" version="1.0"><defs><g/><clipPath id="510ae81f22"><path d="M 0.316406 0 L 33.703125 0 L 33.703125 29.03125 L 0.316406 29.03125 Z M 0.316406 0 " clip-rule="nonzero"/></clipPath><clipPath id="66c6ffce32"><path d="M 2.523438 13.570312 L 31.976562 13.570312 L 31.976562 15.882812 L 2.523438 15.882812 Z M 2.523438 13.570312 " clip-rule="nonzero"/></clipPath></defs><g clip-path="url(#510ae81f22)"><path fill="#ffffff" d="M 0.316406 0 L 34.183594 0 L 34.183594 36.078125 L 0.316406 36.078125 Z M 0.316406 0 " fill-opacity="1" fill-rule="nonzero"/><path fill="#ffffff" d="M 0.316406 0 L 34.183594 0 L 34.183594 29.453125 L 0.316406 29.453125 Z M 0.316406 0 " fill-opacity="1" fill-rule="nonzero"/><path fill="#272727" d="M 0.316406 0 L 34.183594 0 L 34.183594 29.453125 L 0.316406 29.453125 Z M 0.316406 0 " fill-opacity="1" fill-rule="nonzero"/></g><g fill="#ece6db" fill-opacity="1"><g transform="translate(2.316678, 22.217324)"><g><path d="M 12.933594 0 L 12.933594 -1.75 C 10.457031 -0.652344 8.007812 -0.324219 4.128906 -0.324219 L 4.128906 -17.5625 L 1.625 -17.5625 L 1.625 0 Z M 12.933594 0 "/></g></g></g><g fill="#ece6db" fill-opacity="1"><g transform="translate(16.348536, 22.217324)"><g><path d="M 11.285156 -7.082031 C 10.984375 -7.707031 10.582031 -8.054688 9.859375 -8.332031 C 12.632812 -8.808594 13.984375 -11.132812 13.984375 -13.234375 C 13.984375 -15.460938 12.382812 -17.5625 8.808594 -17.5625 L 1.625 -17.5625 L 1.625 0 L 4.128906 0 L 4.128906 -6.503906 C 5.253906 -7.53125 6.480469 -8.105469 7.230469 -8.105469 C 7.855469 -8.105469 8.304688 -7.78125 8.582031 -7.230469 L 12.257812 0 L 14.761719 0 Z M 8.332031 -8.632812 C 6.878906 -8.707031 5.378906 -7.90625 4.128906 -6.855469 L 4.128906 -17.214844 L 7.253906 -17.214844 C 10.28125 -17.214844 11.734375 -15.136719 11.734375 -12.808594 C 11.734375 -10.632812 10.484375 -8.53125 8.332031 -8.632812 Z M 8.332031 -8.632812 "/></g></g></g><g clip-path="url(#66c6ffce32)"><path fill="#272727" d="M 2.523438 13.570312 L 31.929688 13.570312 L 31.929688 15.917969 L 2.523438 15.917969 Z M 2.523438 13.570312 " fill-opacity="1" fill-rule="nonzero"/></g><g fill="#ece6db" fill-opacity="1"><g transform="translate(2.355604, 15.466115)"><g><path d="M 1.242188 0.03125 C 1.363281 0.03125 1.515625 0.0234375 1.609375 0 L 1.644531 -0.125 C 1.5625 -0.105469 1.390625 -0.0898438 1.203125 -0.0898438 L 0.367188 -0.0898438 L 0.367188 -1.394531 C 0.367188 -1.5 0.371094 -1.542969 0.378906 -1.582031 L 0.242188 -1.582031 C 0.25 -1.542969 0.253906 -1.5 0.253906 -1.394531 L 0.253906 -0.1875 C 0.253906 -0.0820312 0.25 -0.0078125 0.242188 0.03125 C 0.359375 0.0078125 0.527344 0 0.699219 0 C 0.878906 0 1.050781 0.03125 1.242188 0.03125 Z M 1.242188 0.03125 "/></g></g></g><g fill="#ece6db" fill-opacity="1"><g transform="translate(4.295303, 15.466115)"><g><path d="M 0.0507812 0 L 0.195312 0 C 0.207031 -0.0390625 0.226562 -0.0820312 0.285156 -0.1875 L 0.421875 -0.429688 L 1.554688 -0.429688 L 1.6875 -0.1875 C 1.746094 -0.0820312 1.761719 -0.0390625 1.777344 0 L 1.925781 0 C 1.894531 -0.0390625 1.867188 -0.0820312 1.8125 -0.1875 L 1.152344 -1.398438 C 1.121094 -1.457031 1.089844 -1.519531 1.074219 -1.582031 L 0.90625 -1.582031 C 0.894531 -1.542969 0.875 -1.5 0.816406 -1.394531 L 0.164062 -0.1875 C 0.105469 -0.0820312 0.078125 -0.0390625 0.0507812 0 Z M 0.472656 -0.527344 L 0.855469 -1.238281 C 0.894531 -1.316406 0.9375 -1.390625 0.976562 -1.464844 L 0.992188 -1.464844 L 1.113281 -1.242188 L 1.5 -0.527344 Z M 0.472656 -0.527344 "/></g></g></g><g fill="#ece6db" fill-opacity="1"><g transform="translate(6.485648, 15.466115)"><g><path d="M 1.675781 0.03125 C 1.761719 0.03125 1.832031 -0.00390625 1.875 -0.0546875 L 1.855469 -0.179688 C 1.8125 -0.113281 1.753906 -0.0859375 1.6875 -0.0859375 C 1.351562 -0.0859375 1.65625 -0.859375 0.933594 -0.859375 L 0.878906 -0.859375 L 0.878906 -0.875 L 0.90625 -0.875 C 1.3125 -0.875 1.574219 -1.023438 1.574219 -1.363281 C 1.574219 -1.46875 1.554688 -1.515625 1.511719 -1.582031 L 1.382812 -1.582031 C 1.441406 -1.511719 1.460938 -1.441406 1.460938 -1.359375 C 1.460938 -1.082031 1.25 -0.902344 0.859375 -0.902344 L 0.367188 -0.902344 L 0.367188 -1.394531 C 0.367188 -1.5 0.371094 -1.542969 0.378906 -1.582031 L 0.242188 -1.582031 C 0.25 -1.542969 0.253906 -1.5 0.253906 -1.394531 L 0.253906 -0.1875 C 0.253906 -0.0820312 0.25 -0.0390625 0.242188 0 L 0.378906 0 C 0.371094 -0.0390625 0.367188 -0.0820312 0.367188 -0.1875 L 0.367188 -0.796875 C 0.441406 -0.820312 0.667969 -0.839844 0.785156 -0.839844 C 1.601562 -0.839844 1.152344 0.03125 1.675781 0.03125 Z M 1.675781 0.03125 "/></g></g></g><g fill="#ece6db" fill-opacity="1"><g transform="translate(8.615026, 15.466115)"><g><path d="M 0.902344 0.03125 C 1.339844 0.03125 1.625 -0.152344 1.625 -0.425781 C 1.625 -1.023438 0.277344 -0.710938 0.277344 -1.191406 C 0.277344 -1.390625 0.5625 -1.511719 0.863281 -1.507812 C 1.101562 -1.507812 1.339844 -1.449219 1.484375 -1.363281 L 1.484375 -1.480469 C 1.332031 -1.554688 1.101562 -1.613281 0.863281 -1.613281 C 0.488281 -1.613281 0.160156 -1.453125 0.160156 -1.183594 C 0.160156 -0.589844 1.511719 -0.90625 1.511719 -0.417969 C 1.511719 -0.207031 1.261719 -0.0703125 0.90625 -0.0703125 C 0.648438 -0.0703125 0.375 -0.132812 0.128906 -0.257812 L 0.121094 -0.140625 C 0.363281 -0.0273438 0.644531 0.03125 0.902344 0.03125 Z M 0.902344 0.03125 "/></g></g></g><g fill="#ece6db" fill-opacity="1"><g transform="translate(10.586338, 15.466115)"><g><path d="M 0.242188 0 L 0.378906 0 C 0.371094 -0.0390625 0.367188 -0.0820312 0.367188 -0.1875 L 0.367188 -0.734375 L 1.699219 -0.734375 L 1.699219 -0.1875 C 1.699219 -0.0820312 1.695312 -0.0390625 1.6875 0 L 1.824219 0 C 1.816406 -0.0390625 1.8125 -0.0820312 1.8125 -0.1875 L 1.8125 -1.394531 C 1.8125 -1.5 1.816406 -1.542969 1.824219 -1.582031 L 1.6875 -1.582031 C 1.695312 -1.542969 1.699219 -1.5 1.699219 -1.394531 L 1.699219 -0.84375 L 0.367188 -0.84375 L 0.367188 -1.394531 C 0.367188 -1.5 0.371094 -1.542969 0.378906 -1.582031 L 0.242188 -1.582031 C 0.25 -1.542969 0.253906 -1.5 0.253906 -1.394531 L 0.253906 -0.1875 C 0.253906 -0.0820312 0.25 -0.0390625 0.242188 0 Z M 0.242188 0 "/></g></g></g><g fill="#ece6db" fill-opacity="1"><g transform="translate(12.869265, 15.466115)"><g><path d="M 0.828125 -0.00390625 L 0.964844 -0.00390625 C 0.960938 -0.0429688 0.953125 -0.0859375 0.953125 -0.191406 L 0.953125 -0.605469 L 1.585938 -1.394531 C 1.667969 -1.5 1.703125 -1.542969 1.742188 -1.582031 L 1.582031 -1.582031 C 1.558594 -1.542969 1.53125 -1.496094 1.449219 -1.394531 L 0.902344 -0.722656 L 0.886719 -0.722656 L 0.347656 -1.394531 C 0.265625 -1.496094 0.234375 -1.542969 0.210938 -1.582031 L 0.0507812 -1.582031 C 0.0898438 -1.542969 0.125 -1.5 0.210938 -1.394531 L 0.84375 -0.605469 L 0.84375 -0.191406 C 0.84375 -0.0859375 0.835938 -0.0429688 0.828125 -0.00390625 Z M 0.828125 -0.00390625 "/></g></g></g><g fill="#ece6db" fill-opacity="1"><g transform="translate(14.878962, 15.466115)"><g><path d="M 0.0507812 0 L 0.195312 0 C 0.207031 -0.0390625 0.226562 -0.0820312 0.285156 -0.1875 L 0.421875 -0.429688 L 1.554688 -0.429688 L 1.6875 -0.1875 C 1.746094 -0.0820312 1.761719 -0.0390625 1.777344 0 L 1.925781 0 C 1.894531 -0.0390625 1.867188 -0.0820312 1.8125 -0.1875 L 1.152344 -1.398438 C 1.121094 -1.457031 1.089844 -1.519531 1.074219 -1.582031 L 0.90625 -1.582031 C 0.894531 -1.542969 0.875 -1.5 0.816406 -1.394531 L 0.164062 -0.1875 C 0.105469 -0.0820312 0.078125 -0.0390625 0.0507812 0 Z M 0.472656 -0.527344 L 0.855469 -1.238281 C 0.894531 -1.316406 0.9375 -1.390625 0.976562 -1.464844 L 0.992188 -1.464844 L 1.113281 -1.242188 L 1.5 -0.527344 Z M 0.472656 -0.527344 "/></g></g></g><g fill="#ece6db" fill-opacity="1"><g transform="translate(17.069307, 15.466115)"><g/></g></g><g fill="#ece6db" fill-opacity="1"><g transform="translate(17.974799, 15.466115)"><g><path d="M 1.800781 0.0351562 C 1.882812 0.0351562 1.945312 0.0078125 1.996094 -0.0507812 L 1.964844 -0.167969 C 1.917969 -0.109375 1.863281 -0.0820312 1.796875 -0.0820312 C 1.457031 -0.0820312 1.738281 -0.773438 1.074219 -0.773438 L 1.0625 -0.773438 L 1.0625 -0.789062 L 1.253906 -0.789062 C 1.542969 -0.789062 1.742188 -0.96875 1.742188 -1.183594 C 1.742188 -1.4375 1.523438 -1.582031 1.203125 -1.582031 L 0.242188 -1.582031 C 0.25 -1.542969 0.253906 -1.5 0.253906 -1.394531 L 0.253906 -0.1875 C 0.253906 -0.0820312 0.25 -0.0390625 0.242188 0 L 0.378906 0 C 0.371094 -0.0390625 0.367188 -0.0820312 0.367188 -0.1875 L 0.367188 -0.734375 C 0.445312 -0.75 0.726562 -0.757812 0.820312 -0.757812 C 1.71875 -0.757812 1.261719 0.0351562 1.800781 0.0351562 Z M 0.367188 -0.832031 L 0.367188 -1.472656 L 1.195312 -1.472656 C 1.457031 -1.472656 1.628906 -1.355469 1.628906 -1.183594 C 1.628906 -1.007812 1.453125 -0.832031 1.175781 -0.832031 Z M 0.367188 -0.832031 "/></g></g></g><g fill="#ece6db" fill-opacity="1"><g transform="translate(20.199016, 15.466115)"><g><path d="M 0.0507812 0 L 0.195312 0 C 0.207031 -0.0390625 0.226562 -0.0820312 0.285156 -0.1875 L 0.421875 -0.429688 L 1.554688 -0.429688 L 1.6875 -0.1875 C 1.746094 -0.0820312 1.761719 -0.0390625 1.777344 0 L 1.925781 0 C 1.894531 -0.0390625 1.867188 -0.0820312 1.8125 -0.1875 L 1.152344 -1.398438 C 1.121094 -1.457031 1.089844 -1.519531 1.074219 -1.582031 L 0.90625 -1.582031 C 0.894531 -1.542969 0.875 -1.5 0.816406 -1.394531 L 0.164062 -0.1875 C 0.105469 -0.0820312 0.078125 -0.0390625 0.0507812 0 Z M 0.472656 -0.527344 L 0.855469 -1.238281 C 0.894531 -1.316406 0.9375 -1.390625 0.976562 -1.464844 L 0.992188 -1.464844 L 1.113281 -1.242188 L 1.5 -0.527344 Z M 0.472656 -0.527344 "/></g></g></g><g fill="#ece6db" fill-opacity="1"><g transform="translate(22.389361, 15.466115)"><g><path d="M 0.242188 0 L 0.378906 0 C 0.371094 -0.0390625 0.367188 -0.0820312 0.367188 -0.1875 L 0.367188 -1.394531 C 0.367188 -1.5 0.371094 -1.542969 0.378906 -1.582031 L 0.242188 -1.582031 C 0.25 -1.542969 0.253906 -1.5 0.253906 -1.394531 L 0.253906 -0.1875 C 0.253906 -0.0820312 0.25 -0.0390625 0.242188 0 Z M 0.242188 0 "/></g></g></g><g fill="#ece6db" fill-opacity="1"><g transform="translate(23.22711, 15.466115)"><g><path d="M 1.675781 0.03125 C 1.761719 0.03125 1.832031 -0.00390625 1.875 -0.0546875 L 1.855469 -0.179688 C 1.8125 -0.113281 1.753906 -0.0859375 1.6875 -0.0859375 C 1.351562 -0.0859375 1.65625 -0.859375 0.933594 -0.859375 L 0.878906 -0.859375 L 0.878906 -0.875 L 0.90625 -0.875 C 1.3125 -0.875 1.574219 -1.023438 1.574219 -1.363281 C 1.574219 -1.46875 1.554688 -1.515625 1.511719 -1.582031 L 1.382812 -1.582031 C 1.441406 -1.511719 1.460938 -1.441406 1.460938 -1.359375 C 1.460938 -1.082031 1.25 -0.902344 0.859375 -0.902344 L 0.367188 -0.902344 L 0.367188 -1.394531 C 0.367188 -1.5 0.371094 -1.542969 0.378906 -1.582031 L 0.242188 -1.582031 C 0.25 -1.542969 0.253906 -1.5 0.253906 -1.394531 L 0.253906 -0.1875 C 0.253906 -0.0820312 0.25 -0.0390625 0.242188 0 L 0.378906 0 C 0.371094 -0.0390625 0.367188 -0.0820312 0.367188 -0.1875 L 0.367188 -0.796875 C 0.441406 -0.820312 0.667969 -0.839844 0.785156 -0.839844 C 1.601562 -0.839844 1.152344 0.03125 1.675781 0.03125 Z M 1.675781 0.03125 "/></g></g></g><g fill="#ece6db" fill-opacity="1"><g transform="translate(25.356489, 15.466115)"><g><path d="M 0.648438 0 L 0.792969 0 L 1.324219 -1.410156 L 1.339844 -1.410156 L 1.863281 0 L 2.015625 0 C 2.03125 -0.0820312 2.054688 -0.160156 2.085938 -0.238281 L 2.511719 -1.394531 C 2.550781 -1.5 2.566406 -1.542969 2.589844 -1.582031 L 2.441406 -1.582031 C 2.4375 -1.542969 2.429688 -1.5 2.390625 -1.394531 L 2.019531 -0.382812 C 1.992188 -0.308594 1.960938 -0.238281 1.933594 -0.164062 L 1.921875 -0.164062 L 1.390625 -1.582031 L 1.269531 -1.582031 L 0.738281 -0.164062 L 0.726562 -0.164062 C 0.695312 -0.238281 0.667969 -0.3125 0.640625 -0.382812 L 0.269531 -1.394531 C 0.230469 -1.5 0.222656 -1.542969 0.214844 -1.582031 L 0.0703125 -1.582031 C 0.09375 -1.542969 0.109375 -1.5 0.148438 -1.394531 L 0.574219 -0.238281 C 0.605469 -0.15625 0.632812 -0.0820312 0.648438 0 Z M 0.648438 0 "/></g></g></g><g fill="#ece6db" fill-opacity="1"><g transform="translate(28.231038, 15.466115)"><g><path d="M 0.0507812 0 L 0.195312 0 C 0.207031 -0.0390625 0.226562 -0.0820312 0.285156 -0.1875 L 0.421875 -0.429688 L 1.554688 -0.429688 L 1.6875 -0.1875 C 1.746094 -0.0820312 1.761719 -0.0390625 1.777344 0 L 1.925781 0 C 1.894531 -0.0390625 1.867188 -0.0820312 1.8125 -0.1875 L 1.152344 -1.398438 C 1.121094 -1.457031 1.089844 -1.519531 1.074219 -1.582031 L 0.90625 -1.582031 C 0.894531 -1.542969 0.875 -1.5 0.816406 -1.394531 L 0.164062 -0.1875 C 0.105469 -0.0820312 0.078125 -0.0390625 0.0507812 0 Z M 0.472656 -0.527344 L 0.855469 -1.238281 C 0.894531 -1.316406 0.9375 -1.390625 0.976562 -1.464844 L 0.992188 -1.464844 L 1.113281 -1.242188 L 1.5 -0.527344 Z M 0.472656 -0.527344 "/></g></g></g><g fill="#ece6db" fill-opacity="1"><g transform="translate(30.421384, 15.466115)"><g><path d="M 1.242188 0.03125 C 1.363281 0.03125 1.515625 0.0234375 1.609375 0 L 1.644531 -0.125 C 1.5625 -0.105469 1.390625 -0.0898438 1.203125 -0.0898438 L 0.367188 -0.0898438 L 0.367188 -1.394531 C 0.367188 -1.5 0.371094 -1.542969 0.378906 -1.582031 L 0.242188 -1.582031 C 0.25 -1.542969 0.253906 -1.5 0.253906 -1.394531 L 0.253906 -0.1875 C 0.253906 -0.0820312 0.25 -0.0078125 0.242188 0.03125 C 0.359375 0.0078125 0.527344 0 0.699219 0 C 0.878906 0 1.050781 0.03125 1.242188 0.03125 Z M 1.242188 0.03125 "/></g></g></g></svg>